<svg xmlns="http://www.w3.org/2000/svg" width="720" height="480" viewBox="0 0 720 480"><g transform="translate(13183 -5805.362)"><path style="line-height:normal;text-indent:0;text-align:start;text-decoration-line:none;text-decoration-style:solid;text-decoration-color:#000;text-transform:none;block-progression:tb;white-space:normal;isolation:auto;mix-blend-mode:normal;solid-color:#000;solid-opacity:1" fill="#3b3c3d" d="m -15363.223,6859.625 c -33.102,0 -59.998,26.8984 -59.998,60 l 0,360 c 0,33.1016 26.896,59.998 59.998,59.998 l 600,0 c 33.102,0 60,-26.8964 60,-59.998 l 0,-360 c 0,-33.1016 -26.898,-60 -60,-60 l -600,0 z" color="#000" enable-background="accumulate" font-family="sans-serif" font-weight="400" overflow="visible" transform="translate(2240.222 -1054.262)"/><path style="line-height:normal;text-indent:0;text-align:start;text-decoration-line:none;text-decoration-style:solid;text-decoration-color:#000;text-transform:none;block-progression:tb;white-space:normal;isolation:auto;mix-blend-mode:normal;solid-color:#000;solid-opacity:1" fill="#fff" d="m -15363.301,6875.625 c -21.156,0.036 -38.542,14.5897 -42.873,34.3496 l 172.918,123.6504 107.033,0 0,-3.4609 -215.181,-154.5391 -21.897,0 z" color="#000" enable-background="accumulate" font-family="sans-serif" font-weight="400" overflow="visible" transform="translate(2240.222 -1054.262)"/><path d="m -13073.754,5821.3621 187.754,0 0,134.8418 -187.754,-134.8418 z" style="line-height:normal;text-indent:0;text-align:start;text-decoration-line:none;text-decoration-style:solid;text-decoration-color:#000;text-transform:none;block-progression:tb;white-space:normal;isolation:auto;mix-blend-mode:normal;solid-color:#000;solid-opacity:1" fill="#3d6591" color="#000" enable-background="accumulate" font-family="sans-serif" font-weight="400" overflow="visible"/><path d="m -12870,5821.3621 94,0 0,174 297,0 0,100 -297,0 0,174 -94,0 0,-174 -297,0 0,-100 297,0 0,-174 z" style="line-height:normal;text-indent:0;text-align:start;text-decoration-line:none;text-decoration-style:solid;text-decoration-color:#000;text-transform:none;block-progression:tb;white-space:normal;isolation:auto;mix-blend-mode:normal;solid-color:#000;solid-opacity:1" fill="#fff" color="#000" enable-background="accumulate" font-family="sans-serif" font-weight="400" overflow="visible"/><path d="m -12760,5821.3621 187.754,0 -187.754,134.8418 0,-134.8418 z" style="line-height:normal;text-indent:0;text-align:start;text-decoration-line:none;text-decoration-style:solid;text-decoration-color:#000;text-transform:none;block-progression:tb;white-space:normal;isolation:auto;mix-blend-mode:normal;solid-color:#000;solid-opacity:1" fill="#3d6591" color="#000" enable-background="accumulate" font-family="sans-serif" font-weight="400" overflow="visible"/><path style="line-height:normal;text-indent:0;text-align:start;text-decoration-line:none;text-decoration-style:solid;text-decoration-color:#000;text-transform:none;block-progression:tb;white-space:normal;isolation:auto;mix-blend-mode:normal;solid-color:#000;solid-opacity:1" fill="#fff" d="m -14785.039,6875.625 -215.184,154.5391 0,3.4609 107.034,0 172.919,-123.6504 c -4.331,-19.76 -21.718,-34.3136 -42.875,-34.3496 l -21.894,0 z" color="#000" enable-background="accumulate" font-family="sans-serif" font-weight="400" overflow="visible" transform="translate(2240.222 -1054.262)"/><path d="M-13167 5874.6336l146.455 104.7285-146.455 0 0-104.7285zM-12479 5874.6336l0 104.7285-146.455 0 146.455-104.7285zM-13167 6111.3621l146.455 0-146.455 104.7285 0-104.7285z" style="line-height:normal;text-indent:0;text-align:start;text-decoration-line:none;text-decoration-style:solid;text-decoration-color:#000;text-transform:none;block-progression:tb;white-space:normal;isolation:auto;mix-blend-mode:normal;solid-color:#000;solid-opacity:1" fill="#3d6591" color="#000" enable-background="accumulate" font-family="sans-serif" font-weight="400" overflow="visible"/><path style="line-height:normal;text-indent:0;text-align:start;text-decoration-line:none;text-decoration-style:solid;text-decoration-color:#000;text-transform:none;block-progression:tb;white-space:normal;isolation:auto;mix-blend-mode:normal;solid-color:#000;solid-opacity:1" fill="#fff" d="M-15233.256 7165.625l-172.918 123.6504c4.337 19.784 21.76 34.3496 42.951 34.3496l21.819 0 215.181-154.5391 0-3.4609-107.033 0zM-15000.223 7165.625l0 3.4609 215.184 154.5391 21.816 0c21.192 0 38.617-14.5655 42.953-34.3496l-172.919-123.6504-107.034 0z" color="#000" enable-background="accumulate" font-family="sans-serif" font-weight="400" overflow="visible" transform="translate(2240.222 -1054.262)"/><path d="M-12625.455 6111.3621l146.455 0 0 104.7285-146.455-104.7285zM-12886 6134.5203l0 134.8418-187.754 0 187.754-134.8418zM-12760 6134.5203l187.754 134.8418-187.754 0 0-134.8418z" style="line-height:normal;text-indent:0;text-align:start;text-decoration-line:none;text-decoration-style:solid;text-decoration-color:#000;text-transform:none;block-progression:tb;white-space:normal;isolation:auto;mix-blend-mode:normal;solid-color:#000;solid-opacity:1" fill="#3d6591" color="#000" enable-background="accumulate" font-family="sans-serif" font-weight="400" overflow="visible"/><path style="line-height:normal;text-indent:0;text-align:start;text-decoration-line:none;text-decoration-style:solid;text-decoration-color:#000;text-transform:none;block-progression:tb;white-space:normal;isolation:auto;mix-blend-mode:normal;solid-color:#000;solid-opacity:1" fill="#ea6153" d="m -12852,5821.3601 58,0 0,194.002 315,0 0,60 -315,0 0,194 -58,0 0,-194 -315,1 0,-60 315,-1 z" color="#000" enable-background="accumulate" font-family="sans-serif" font-weight="400" overflow="visible"/><path style="line-height:normal;text-indent:0;text-align:start;text-decoration-line:none;text-decoration-style:solid;text-decoration-color:#000;text-transform:none;block-progression:tb;white-space:normal;isolation:auto;mix-blend-mode:normal;solid-color:#000;solid-opacity:1" fill="#ea6153" fill-rule="evenodd" d="M-14773.223 6875.625l-215 158 42 0 206.174-151.5137c-6.688-4.1059-14.586-6.4718-23.096-6.4863l-10.078 0zM-15180.223 7165.625l-206.172 151.5117c6.708 4.1177 14.633 6.4883 23.172 6.4883l10 0 215-158-42 0z" color="#000" enable-background="accumulate" font-family="sans-serif" font-weight="400" overflow="visible" transform="translate(2240.222 -1054.262)"/><g transform="matrix(-1 0 0 1 -25646 0)"><path style="line-height:normal;text-indent:0;text-align:start;text-decoration-line:none;text-decoration-style:solid;text-decoration-color:#000;text-transform:none;block-progression:tb;white-space:normal;isolation:auto;mix-blend-mode:normal;solid-color:#000;solid-opacity:1" fill="#ea6153" fill-rule="evenodd" d="M-15363.301 6875.625c-8.51.015-16.408 2.3804-23.095 6.4863l206.173 151.5137 42 0-215-158-10.078 0zM-14988.223 7165.625l215 158 10 0c8.54 0 16.464-2.3706 23.172-6.4883l-206.172-151.5117-42 0z" color="#000" enable-background="accumulate" font-family="sans-serif" font-weight="400" overflow="visible" transform="matrix(-1 0 0 1 -27886.222 -1054.262)"/></g></g></svg>