<svg xmlns="http://www.w3.org/2000/svg" width="720" height="480" viewBox="0 0 720 480"><g transform="translate(9951.618 -7507.391)"><path style="line-height:normal;text-indent:0;text-align:start;text-decoration-line:none;text-decoration-style:solid;text-decoration-color:#000;text-transform:none;block-progression:tb;white-space:normal;isolation:auto;mix-blend-mode:normal;solid-color:#000;solid-opacity:1" fill="#3b3c3d" d="m -9891.6172,7507.3914 c -33.1016,0 -60,26.8984 -60,60 l 0,92 0,0 0,16 0,0 0,144 0,0 0,16 0,0 0,92 c 0,33.1016 26.8984,60 60,60 l 600,0 c 33.1016,0 59.9981,-26.8984 59.9981,-60 l 0,-252 0,-16 0,-92 c 0,-33.1016 -26.8965,-60 -59.9981,-60 l -600,0 z" color="#000" enable-background="accumulate" font-family="sans-serif" font-weight="400" overflow="visible"/><path style="line-height:normal;text-indent:0;text-align:start;text-decoration-line:none;text-decoration-style:solid;text-decoration-color:#000;text-transform:none;block-progression:tb;white-space:normal;isolation:auto;mix-blend-mode:normal;solid-color:#000;solid-opacity:1" fill="#ea6153" d="m -9891.6172,7523.3914 600,0 c 24.5144,0 44,19.4856 44,44 l 0,92 -688.0019,0 0,-92 c 0,-24.5144 19.4875,-44 44.0019,-44 z" color="#000" enable-background="accumulate" font-family="sans-serif" font-weight="400" overflow="visible"/><path style="line-height:normal;text-indent:0;text-align:start;text-decoration-line:none;text-decoration-style:solid;text-decoration-color:#000;text-transform:none;block-progression:tb;white-space:normal;isolation:auto;mix-blend-mode:normal;solid-color:#000;solid-opacity:1" fill="#fff" d="m -9935.6191,7675.3914 688.0019,0 0,144 -688.0019,0 0,-144 z" color="#000" enable-background="accumulate" font-family="sans-serif" font-weight="400" overflow="visible"/><path style="line-height:normal;text-indent:0;text-align:start;text-decoration-line:none;text-decoration-style:solid;text-decoration-color:#000;text-transform:none;block-progression:tb;white-space:normal;isolation:auto;mix-blend-mode:normal;solid-color:#000;solid-opacity:1" fill="#3d6591" d="m -9935.6191,7835.3914 688.0019,0 0,92 c 0,24.5144 -19.4856,44 -44,44 l -600,0 c -24.5144,0 -44.0019,-19.4856 -44.0019,-44 l 0,-92 z" color="#000" enable-background="accumulate" font-family="sans-serif" font-weight="400" overflow="visible"/></g></svg>